<svg width="80" height="80" viewBox="0 0 80 80" fill="none" xmlns="http://www.w3.org/2000/svg">
<path d="M0 40C0 17.9086 17.9086 0 40 0C62.0914 0 80 17.9086 80 40C80 62.0914 62.0914 80 40 80C17.9086 80 0 62.0914 0 40Z" fill="#E9EAEB"/>
<path d="M40 15C33.45 15 28.125 20.325 28.125 26.875C28.125 33.3 33.15 38.5 39.7 38.725C39.9 38.7 40.1 38.7 40.25 38.725C40.3 38.725 40.325 38.725 40.375 38.725C40.4 38.725 40.4 38.725 40.425 38.725C46.825 38.5 51.85 33.3 51.875 26.875C51.875 20.325 46.55 15 40 15Z" fill="#717680"/>
<path d="M52.7004 45.3742C45.7254 40.7242 34.3504 40.7242 27.3254 45.3742C24.1504 47.4992 22.4004 50.3742 22.4004 53.4492C22.4004 56.5242 24.1504 59.3742 27.3004 61.4742C30.8004 63.8242 35.4004 64.9992 40.0004 64.9992C44.6004 64.9992 49.2004 63.8242 52.7004 61.4742C55.8504 59.3492 57.6004 56.4992 57.6004 53.3992C57.5754 50.3242 55.8504 47.4742 52.7004 45.3742Z" fill="#717680"/>
</svg>
